<svg width="49" height="33" viewBox="0 0 49 33" fill="none" xmlns="http://www.w3.org/2000/svg">
<path fill-rule="evenodd" clip-rule="evenodd" d="M37.8145 14.3662C37.3316 14.3662 36.9404 14.7596 36.9404 15.2403V19.3463C36.9404 19.8293 37.3316 20.2204 37.8145 20.2204H41.9205C42.4035 20.2204 42.7946 19.8293 42.7946 19.3463V15.2403C42.7946 14.7596 42.4035 14.3662 41.9205 14.3662H37.8145ZM38.6886 18.4722V16.1144H41.0465V18.4722H38.6886Z" fill="#20514C"/>
<path fill-rule="evenodd" clip-rule="evenodd" d="M7.86768 13.6444C7.86768 7.8516 12.5637 3.15527 18.3568 3.15527C24.1499 3.15527 28.8459 7.85132 28.8459 13.6444C28.8459 19.4375 24.1499 24.1335 18.3568 24.1335C12.5637 24.1335 7.86768 19.4375 7.86768 13.6444ZM18.3568 4.90346C13.5296 4.90346 9.61586 8.81721 9.61586 13.6444C9.61586 14.123 9.6552 14.5928 9.72949 15.0517L15.7102 13.4477C15.1749 12.8227 14.8602 11.9858 14.8602 11.1095C14.8602 9.4968 15.9288 8.01081 17.4825 7.74425V6.65165H19.2307V7.74425C20.7843 8.01084 21.853 9.4968 21.853 11.1095H20.1048C20.1048 10.0912 19.3946 9.45092 18.7325 9.45092H17.9829C17.3186 9.45092 16.6084 10.0912 16.6084 11.1095C16.6084 12.1278 17.3186 12.7703 17.9829 12.7703H18.2452L26.5335 10.5479C25.2836 7.24821 22.0934 4.90346 18.3568 4.90346ZM26.9842 12.2369L21.0051 13.8409C21.5383 14.4658 21.8529 15.3028 21.8529 16.1769C21.8529 17.7896 20.7843 19.2777 19.2307 19.5421V20.6369H17.4825V19.5421C15.9288 19.2777 14.8602 17.7896 14.8602 16.1769H16.6084C16.6084 17.1952 17.3186 17.8377 17.9829 17.8377H18.7324C19.3945 17.8377 20.1047 17.1952 20.1047 16.1769C20.1047 15.1586 19.3945 14.5183 18.7324 14.5183H18.4745L10.1795 16.7407C11.4294 20.0404 14.6198 22.3853 18.3565 22.3853C23.1837 22.3853 27.0974 18.4715 27.0974 13.6443C27.0974 13.1658 27.0585 12.6958 26.9842 12.2369Z" fill="#20514C"/>
<path fill-rule="evenodd" clip-rule="evenodd" d="M0.00055271 0.874093C0.00055271 0.391157 0.39171 0 0.874646 0H33.7098C34.1927 0 34.5839 0.391157 34.5839 0.874093V10.2617H43.9715C44.284 10.2617 44.5746 10.43 44.7298 10.7031L48.8336 17.8861C48.9101 18.0172 48.9494 18.168 48.9494 18.3188V27.5536C48.9494 28.0366 48.5583 28.4277 48.0753 28.4277H44.7691C44.3539 30.7616 42.3172 32.5316 39.8676 32.5316C37.4158 32.5316 35.3792 30.7615 34.964 28.4277H33.7096H33.6681H13.9855C13.5725 30.7594 11.5337 32.5316 9.08402 32.5316C6.6322 32.5316 4.59339 30.7593 4.18037 28.4277H0.874093C0.391157 28.4277 0 28.0366 0 27.5536L0.00055271 0.874093ZM47.2016 26.6796H44.7694C44.3564 24.3479 42.3176 22.5757 39.8679 22.5757C37.4161 22.5757 35.3773 24.3479 34.9643 26.6796H34.584V12.0099H43.4648L47.2016 18.5523V26.6796ZM4.18109 26.6796C4.5941 24.3457 6.63292 22.5757 9.08474 22.5757C11.5344 22.5757 13.5732 24.3458 13.9862 26.6796H32.8358V1.74847H1.74891V26.6796H4.18109ZM5.85281 27.5536C5.85281 25.7705 7.29941 24.3239 9.08474 24.3239C10.8679 24.3239 12.3145 25.7705 12.3145 27.5536C12.3145 29.3368 10.8679 30.7834 9.08474 30.7834C7.29941 30.7834 5.85281 29.3368 5.85281 27.5536ZM39.8683 24.3239C38.083 24.3239 36.6364 25.7705 36.6364 27.5536C36.6364 29.3368 38.083 30.7834 39.8683 30.7834C41.6515 30.7834 43.0981 29.3368 43.0981 27.5536C43.0981 25.7705 41.6515 24.3239 39.8683 24.3239Z" fill="#20514C"/>
</svg>
