<svg width="31" height="31" viewBox="0 0 31 31" fill="none" xmlns="http://www.w3.org/2000/svg">
<g clip-path="url(#clip0_529_6820)">
<path d="M4.42673 10.1178C4.42698 8.91874 4.73718 7.74013 5.32721 6.69633C5.91725 5.65252 6.76709 4.77896 7.79426 4.16043C8.82143 3.54189 9.99105 3.19938 11.1896 3.16613C12.3882 3.13288 13.575 3.41002 14.6349 3.97067C15.6948 4.53131 16.5917 5.35641 17.2387 6.3659C17.8857 7.37539 18.2608 8.53498 18.3275 9.73216C18.3942 10.9293 18.1503 12.1234 17.6195 13.1985C17.0887 14.2737 16.289 15.1933 15.298 15.8683C17.4321 16.651 19.2832 18.0546 20.613 19.8982C21.9427 21.7419 22.6904 23.9413 22.7596 26.2134C22.7567 26.4584 22.6592 26.6927 22.4875 26.8675C22.3158 27.0423 22.0832 27.144 21.8384 27.1513C21.5935 27.1587 21.3552 27.0711 21.1734 26.9069C20.9916 26.7428 20.8802 26.5147 20.8626 26.2703C20.7873 23.806 19.7554 21.4679 17.9856 19.7514C16.2159 18.0349 13.8473 17.0749 11.3819 17.0749C8.91642 17.0749 6.54786 18.0349 4.7781 19.7514C3.00834 21.4679 1.97647 23.806 1.90116 26.2703C1.8885 26.518 1.77934 26.7508 1.59708 26.919C1.41481 27.0872 1.17394 27.1773 0.926055 27.17C0.67817 27.1627 0.442994 27.0586 0.270908 26.8801C0.0988212 26.7015 0.00351213 26.4627 0.00539857 26.2147C0.0743888 23.9423 0.821887 21.7426 2.15168 19.8987C3.48147 18.0548 5.33268 16.6511 7.46703 15.8683C6.53 15.2301 5.76316 14.3726 5.23327 13.3703C4.70338 12.3681 4.4265 11.2515 4.42673 10.1178ZM11.3825 5.05903C10.0408 5.05903 8.75413 5.592 7.80543 6.5407C6.85673 7.4894 6.32376 8.77611 6.32376 10.1178C6.32376 11.4594 6.85673 12.7461 7.80543 13.6948C8.75413 14.6435 10.0408 15.1765 11.3825 15.1765C12.7242 15.1765 14.0109 14.6435 14.9596 13.6948C15.9083 12.7461 16.4412 11.4594 16.4412 10.1178C16.4412 8.77611 15.9083 7.4894 14.9596 6.5407C14.0109 5.592 12.7242 5.05903 11.3825 5.05903ZM21.8667 10.1178C21.6804 10.1178 21.4974 10.1304 21.3179 10.1557C21.1925 10.1782 21.0638 10.1751 20.9397 10.1468C20.8155 10.1185 20.6983 10.0654 20.595 9.99077C20.4918 9.91616 20.4047 9.82151 20.3388 9.71248C20.2729 9.60346 20.2297 9.48228 20.2117 9.35618C20.1937 9.23009 20.2012 9.10165 20.2339 8.97854C20.2666 8.85544 20.3238 8.74017 20.402 8.63964C20.4802 8.5391 20.5779 8.45534 20.6892 8.39337C20.8005 8.33139 20.9231 8.29247 21.0497 8.27891C22.3076 8.09706 23.5902 8.3386 24.6957 8.96554C25.8012 9.59248 26.6668 10.5692 27.1564 11.742C27.646 12.9149 27.7317 14.2172 27.4 15.444C27.0684 16.6709 26.3382 17.7527 25.3244 18.5191C26.8147 19.1864 28.08 20.2707 28.9678 21.6411C29.8555 23.0116 30.3277 24.6096 30.3275 26.2425C30.3275 26.4941 30.2275 26.7353 30.0497 26.9132C29.8718 27.0911 29.6305 27.191 29.3789 27.191C29.1274 27.191 28.8861 27.0911 28.7083 26.9132C28.5304 26.7353 28.4304 26.4941 28.4304 26.2425C28.4309 24.8311 27.9764 23.4572 27.1344 22.3245C26.2924 21.1919 25.1078 20.3608 23.7562 19.9545L23.0808 19.7521V17.6325L23.5993 17.3682C24.368 16.9789 24.9829 16.3418 25.345 15.56C25.7071 14.7782 25.7951 13.8971 25.5948 13.0591C25.3945 12.2211 24.9177 11.475 24.2413 10.9414C23.5649 10.4077 22.7283 10.1175 21.8667 10.1178Z" fill="#20514C"/>
</g>
<defs>
<clipPath id="clip0_529_6820">
<rect width="30.3524" height="30.3524" fill="white"/>
</clipPath>
</defs>
</svg>
