<svg width="32" height="32" viewBox="0 0 32 32" fill="none" xmlns="http://www.w3.org/2000/svg">
<g clip-path="url(#clip0_529_6830)">
<path d="M20.0399 1.1134V14.4732L28.0335 24.6488C28.4229 25.1416 28.6654 25.7341 28.7333 26.3585C28.8013 26.9828 28.6918 27.6136 28.4174 28.1785C28.1431 28.7435 27.7151 29.2196 27.1824 29.5523C26.6498 29.885 26.0341 30.0608 25.4061 30.0595H5.76725C5.13924 30.0608 4.52358 29.885 3.99093 29.5523C3.45829 29.2196 3.03024 28.7435 2.75591 28.1785C2.48158 27.6136 2.37209 26.9828 2.44 26.3585C2.5079 25.7341 2.75046 25.1416 3.13983 24.6488L11.1334 14.4732V1.1134M7.79348 1.1134H23.3799" stroke="#20514C" stroke-width="2.05084" stroke-linecap="round" stroke-linejoin="round"/>
</g>
<defs>
<clipPath id="clip0_529_6830">
<rect width="31.1728" height="31.1728" fill="white"/>
</clipPath>
</defs>
</svg>
