<svg width="122" height="53" viewBox="0 0 122 53" fill="none" xmlns="http://www.w3.org/2000/svg">
<g clip-path="url(#clip0_527_140)">
<path d="M70.5474 38.6903H73.3268L76.0636 45.9358L78.7164 38.6903H81.4396V48.5582H79.422V41.9465L76.8544 48.5582H75.1335L72.5658 41.9465V48.5582H70.5482V38.6903H70.5474Z" fill="#FAFAFA"/>
<path d="M82.6953 44.9489C82.6953 42.6934 84.1764 41.2272 86.4202 41.2272C88.6639 41.2272 90.06 42.5804 90.088 44.7093C90.088 44.9208 90.0736 45.1604 90.0319 45.3864H84.769V45.4849C84.8115 46.5137 85.4747 47.1347 86.4763 47.1347C87.2806 47.1347 87.8451 46.7821 88.0143 46.1059H89.9758C89.7505 47.5152 88.4947 48.6434 86.5613 48.6434C84.1483 48.6434 82.6953 47.1916 82.6953 44.9497V44.9489ZM88.0849 44.0892C87.9438 43.2014 87.3376 42.7079 86.4346 42.7079C85.5317 42.7079 84.9246 43.2295 84.8124 44.0892H88.0858H88.0849Z" fill="#FAFAFA"/>
<path d="M96.4369 38.6903H98.4264V48.5582H96.6911L96.4939 47.5575C96.0143 48.1776 95.3087 48.6431 94.2646 48.6431C92.3176 48.6431 90.8926 47.2194 90.8926 44.9214C90.8926 42.6235 92.3176 41.2278 94.2501 41.2278C95.2517 41.2278 95.9718 41.6228 96.4369 42.2149V38.6912V38.6903ZM96.465 44.9486C96.465 43.7083 95.7882 42.8486 94.7016 42.8486C93.615 42.8486 92.9238 43.6948 92.9238 44.935C92.9238 46.1753 93.615 47.0214 94.7016 47.0214C95.7882 47.0214 96.465 46.1753 96.465 44.9495V44.9486Z" fill="#FAFAFA"/>
<path d="M101.361 46.1471C101.432 46.7817 101.982 47.2183 102.955 47.2183C103.788 47.2183 104.295 46.9507 104.295 46.4427C104.295 45.8506 103.801 45.8082 102.631 45.6535C100.938 45.4565 99.625 45.0759 99.625 43.5816C99.625 42.0873 100.881 41.1996 102.743 41.2132C104.69 41.2132 106.03 42.0729 106.129 43.5536H104.225C104.169 42.9759 103.618 42.6233 102.814 42.6233C102.01 42.6233 101.53 42.9054 101.53 43.3701C101.53 43.9197 102.151 43.9758 103.195 44.1032C104.86 44.2722 106.242 44.6528 106.242 46.2881C106.242 47.7263 104.888 48.6421 102.941 48.6421C100.994 48.6421 99.5544 47.6975 99.4702 46.1471H101.361Z" fill="#FAFAFA"/>
<path d="M49.637 4.89234C50.6377 4.89234 51.4489 4.06322 51.4489 3.04126C51.4489 2.01931 50.6377 1.19019 49.637 1.19019C48.6363 1.19019 47.8252 2.01931 47.8252 3.04126C47.8252 4.06322 48.6363 4.89234 49.637 4.89234Z" fill="#FAFAFA"/>
<path d="M30.1474 33.9778C30.0836 33.9548 30.0181 33.9353 29.9501 33.9217C24.8173 32.8726 20.4913 29.1296 18.7203 23.951L18.1354 22.359C17.5368 20.7356 16.5021 19.3611 15.2004 18.3485C17.8522 16.5493 19.6011 13.4698 19.5909 9.97832C19.5748 4.48795 14.9734 0 9.59992 0H1.50745C0.675081 0 0 0.6898 0 1.54016V29.2562C0.00850228 30.2077 0.782209 30.9765 1.73616 30.9765C2.69012 30.9765 3.46383 30.2077 3.47233 29.2562V20.0144H9.79122C12.0528 20.0144 14.0789 21.4467 14.8773 23.6104L15.4418 25.1446C17.6371 31.532 22.9902 36.1432 29.332 37.4157C29.4442 37.4378 29.5548 37.4472 29.6636 37.4455C29.6763 37.4455 29.6882 37.4472 29.701 37.4472C30.6762 37.4472 31.4669 36.6571 31.4669 35.6827C31.4669 34.8621 30.9058 34.1749 30.1465 33.9778H30.1474ZM9.79462 16.4626V16.4652H3.47658V3.55179H9.79547C13.2797 3.55179 16.1144 6.44776 16.1144 10.0072C16.1144 13.5666 13.2797 16.4626 9.79547 16.4626H9.79462Z" fill="#FAFAFA"/>
<path d="M33.0226 6.7808C26.1238 6.7018 20.5472 12.6772 21.0735 19.8174C21.5173 25.8531 26.3832 30.6851 32.2982 30.9756C35.0929 31.1116 37.7694 30.2705 39.9536 28.6047L39.957 28.6021C40.7359 28.0211 40.8982 26.9201 40.3184 26.1402C39.7402 25.3621 38.6417 25.1973 37.8595 25.7699C36.4295 26.853 34.7018 27.4374 32.8891 27.4374C28.8684 27.4374 25.4998 24.5262 24.6963 20.6592H43.2313C44.0628 20.6592 44.7387 19.9694 44.7387 19.1199C44.7387 12.4496 39.5523 6.85471 33.0234 6.7808H33.0226ZM24.6989 17.1074C25.4998 13.2388 28.8675 10.33 32.89 10.3292C36.9098 10.3292 40.2776 13.2413 41.081 17.1074H24.698H24.6989Z" fill="#FAFAFA"/>
<path d="M110.285 6.7808C103.386 6.7018 97.8094 12.6772 98.3357 19.8174C98.7795 25.8531 103.645 30.6851 109.56 30.9756C112.355 31.1116 115.032 30.2705 117.216 28.6047L117.219 28.6021C117.998 28.0211 118.16 26.9201 117.581 26.1402C117.002 25.3621 115.904 25.1973 115.122 25.7699C113.692 26.853 111.964 27.4374 110.151 27.4374C106.131 27.4374 102.762 24.5262 101.959 20.6592H120.493C121.325 20.6592 122.001 19.9694 122.001 19.1199C122.001 12.4496 116.815 6.85471 110.286 6.7808H110.285ZM101.961 17.1074C102.762 13.2388 106.13 10.33 110.152 10.3292C114.172 10.3292 117.54 13.2413 118.343 17.1074H101.96H101.961Z" fill="#FAFAFA"/>
<path d="M58.0043 8.51573C58.0043 7.53795 57.194 6.74875 56.2078 6.78104C55.264 6.81247 54.5303 7.6178 54.5303 8.56075V8.64656V20.6068C54.5303 26.1388 58.7687 30.8238 64.1812 30.9886C69.8063 31.1594 74.4358 26.5346 74.4358 20.8243V8.56075C74.4358 7.6178 73.7021 6.81247 72.7583 6.78104C71.772 6.7479 70.9618 7.5371 70.9618 8.51573V8.64995V20.826L70.9592 20.8234C70.9592 24.5561 67.9171 27.5778 64.2322 27.436C60.7276 27.2992 58.0035 24.2435 58.0035 20.6603V8.51573H58.0043Z" fill="#FAFAFA"/>
<path d="M51.3727 8.51545C51.3727 7.55721 50.5947 6.77991 49.6357 6.77991C48.6766 6.77991 47.8987 7.55721 47.8987 8.51545V18.8862C47.8987 26.3152 42.6995 32.5234 35.8237 33.9217C35.6554 33.9557 35.4989 34.0194 35.3587 34.1052C34.783 34.3966 34.3877 34.9912 34.3877 35.6802C34.3877 36.562 35.0347 37.29 35.8798 37.4225C35.9045 37.4268 35.9283 37.431 35.9538 37.4335C35.964 37.4344 35.9742 37.4361 35.9853 37.4369C36.0371 37.442 36.0899 37.4454 36.1434 37.4446C36.1477 37.4446 36.1511 37.4446 36.1553 37.4446C36.1587 37.4446 36.1621 37.4446 36.1664 37.4446C36.2012 37.4446 36.2361 37.442 36.2709 37.4395C36.4163 37.4302 36.5575 37.4047 36.691 37.3622C45.0649 35.5655 51.3735 27.9658 51.3735 18.8828V8.5146L51.3727 8.51545Z" fill="#FAFAFA"/>
<path d="M109.01 2.92482C109.01 1.8349 108.006 1.02786 106.937 1.24874C102.27 2.21293 97.963 4.94325 95.1726 8.75414C94.0333 10.3062 93.1142 12.0502 92.4638 13.9429L87.2111 27.2692L80.2749 7.9641C79.934 7.06362 78.9443 6.59044 78.0278 6.89032C77.0585 7.20803 76.5458 8.26567 76.8978 9.22222L83.4429 28.3608C84.0236 29.9383 85.5285 30.9875 87.2111 30.9875C88.8937 30.9875 90.3977 29.9392 90.9793 28.3608L95.8358 15.173C96.6971 12.6627 98.1424 10.4735 99.984 8.75329H99.9789C102.103 6.76544 104.754 5.19385 107.645 4.60004C108.44 4.43694 109.011 3.73525 109.011 2.92312L109.01 2.92482Z" fill="#FAFAFA"/>
<path d="M111.849 52.955H64.1199C59.1325 52.955 55.0752 48.9011 55.0752 43.9179C55.0752 38.9347 59.1325 34.8817 64.1199 34.8817H111.849C116.837 34.8817 120.894 38.9356 120.894 43.9179C120.894 48.9003 116.837 52.955 111.849 52.955ZM64.1199 36.8781C60.2344 36.8781 57.0732 40.0365 57.0732 43.9179C57.0732 47.7993 60.2344 50.9587 64.1199 50.9587H111.849C115.735 50.9587 118.896 47.8002 118.896 43.9179C118.896 40.0357 115.735 36.8781 111.849 36.8781H64.1199Z" fill="#FAFAFA"/>
</g>
<defs>
<clipPath id="clip0_527_140">
<rect width="122" height="52.9549" fill="white"/>
</clipPath>
</defs>
</svg>
