<svg width="37" height="39" viewBox="0 0 37 39" fill="none" xmlns="http://www.w3.org/2000/svg">
<path d="M23.3066 17.8707C31.2072 18.3907 36.2216 26.2779 36.2217 33.8483C36.2217 34.8222 35.9491 35.6658 35.3818 36.3258C34.8313 36.9676 34.0951 37.3277 33.3701 37.5406C31.975 37.948 30.2005 37.9108 28.7803 37.9108H7.54102C6.12084 37.9108 4.34642 37.9481 2.95117 37.5406C2.22634 37.3277 1.49091 36.9674 0.94043 36.3258C0.373151 35.6658 0.0996094 34.8222 0.0996094 33.8483C0.0996599 26.2779 5.11505 18.3906 13.0156 17.8707L13.6562 17.8278L17.7383 23.4186H17.7393C17.9361 23.6859 18.3207 23.7024 18.541 23.4684L18.583 23.4186L22.6641 17.8278L23.3066 17.8707ZM25.0186 20.5104L24.9434 20.4908C24.5821 20.3976 24.2139 20.3228 23.8369 20.2711L23.7773 20.2623L23.7422 20.3112L20.4678 24.7955C19.3265 26.3574 16.996 26.3573 15.8545 24.7955L12.5801 20.3112L12.5439 20.2633L12.4854 20.2711C12.1083 20.3228 11.7393 20.3976 11.3779 20.4908L11.3037 20.5104V25.526L11.3789 25.5455C12.7922 25.9091 13.8377 27.1925 13.8379 28.7194V32.0983C13.8379 32.7424 13.3149 33.265 12.6709 33.2653C12.0266 33.2653 11.5029 32.7425 11.5029 32.0983V28.7194C11.5027 28.1974 11.0806 27.775 10.5586 27.775H9.71387C9.19193 27.7751 8.76973 28.1975 8.76953 28.7194V32.0983C8.76953 32.7424 8.24668 33.2651 7.60254 33.2653C6.95828 33.2653 6.43555 32.7425 6.43555 32.0983V28.7194C6.43572 27.1924 7.48102 25.9089 8.89453 25.5455L8.96973 25.526V21.483L8.81836 21.5729C4.94243 23.8788 2.43457 28.7473 2.43457 33.8492C2.43465 34.3715 2.57058 34.6422 2.71094 34.8053V34.8043C2.86797 34.9872 3.14 35.1635 3.60645 35.3004V35.3014C4.60027 35.5918 5.96442 35.5768 7.54102 35.5768H28.7803C30.3567 35.5768 31.721 35.5917 32.7148 35.3014L32.7158 35.3004C33.1818 35.1636 33.4543 34.9881 33.6113 34.8053C33.7517 34.6422 33.8876 34.3716 33.8877 33.8492C33.8877 28.747 31.3797 23.8788 27.5039 21.5729L27.3525 21.483V28.484L27.4023 28.5123C28.1298 28.9323 28.619 29.7199 28.6191 30.6198C28.6191 31.9635 27.5293 33.0542 26.1855 33.0543C24.8418 33.0543 23.751 31.9635 23.751 30.6198C23.7511 29.7199 24.2413 28.9323 24.9688 28.5123L25.0186 28.484V20.5104Z" fill="#20514C" stroke="#F2EEE6" stroke-width="0.2"/>
<path d="M18.1611 0.0997314C22.7714 0.0999344 26.5078 3.83714 26.5078 8.44739C26.5076 13.0575 22.7712 16.7939 18.1611 16.7941C13.5509 16.7941 9.81368 13.0576 9.81348 8.44739C9.81348 3.83702 13.5508 0.0997314 18.1611 0.0997314ZM18.1611 2.43372C14.841 2.43372 12.1475 5.12723 12.1475 8.44739C12.1477 11.7674 14.8411 14.4601 18.1611 14.4601C21.481 14.4599 24.1736 11.7673 24.1738 8.44739C24.1738 5.12735 21.4811 2.43392 18.1611 2.43372Z" fill="#20514C" stroke="#F2EEE6" stroke-width="0.2"/>
</svg>
