<svg width="28" height="33" viewBox="0 0 28 33" fill="none" xmlns="http://www.w3.org/2000/svg">
<path d="M8.40625 0.151611L9.12402 0.19458C10.7955 0.31997 12.4498 0.626156 14.0586 1.10864C15.7309 1.60872 17.4568 1.90116 19.1982 1.97974C21.5348 1.86377 23.8257 1.27885 25.9385 0.258057C26.0985 0.17876 26.276 0.142289 26.4541 0.151611C26.6327 0.160985 26.8057 0.216653 26.957 0.312744C27.1084 0.408847 27.2333 0.542296 27.3193 0.700439C27.4053 0.858416 27.4505 1.03586 27.4502 1.21606V19.5032C27.4462 19.783 27.3333 20.0507 27.1357 20.2473C27.0613 20.341 26.8868 20.5089 26.5977 20.7083C26.2834 20.9249 25.8273 21.1842 25.2021 21.4338C23.9517 21.9331 22.0252 22.3926 19.2021 22.3928C17.2444 22.4336 15.2963 22.1027 13.459 21.4153C11.8416 20.8104 10.1262 20.5213 8.40332 20.5647H8.38867C6.26141 20.4111 4.13546 20.8668 2.25 21.8772V31.386C2.24996 31.6674 2.13997 31.9382 1.94336 32.1379C1.74673 32.3376 1.47926 32.4503 1.2002 32.4504C0.920952 32.4504 0.65278 32.3378 0.456055 32.1379C0.259454 31.9382 0.149459 31.6674 0.149414 31.386V1.21606C0.149427 0.934616 0.259463 0.663849 0.456055 0.464111C0.65278 0.264275 0.920952 0.151611 1.2002 0.151611C1.47929 0.151716 1.74673 0.264384 1.94336 0.464111C2.13999 0.663856 2.24999 0.934583 2.25 1.21606V1.45044C4.20819 0.658967 6.28777 0.21833 8.39551 0.151611H8.40625ZM8.39844 2.28052C6.27809 2.37027 4.19306 2.86091 2.25 3.72681V19.4807C4.20951 18.7143 6.30235 18.3578 8.40234 18.4358C10.3584 18.3952 12.3049 18.728 14.1406 19.4153C15.7582 20.0193 17.4735 20.3074 19.1963 20.2649H19.21L19.6143 20.2864C21.6056 20.3536 23.5815 19.8939 25.3496 18.9524V2.82739C23.3893 3.60947 21.3104 4.04374 19.2041 4.10864H19.1934C17.2787 4.03051 15.3805 3.71541 13.541 3.17017H13.54C11.8678 2.66357 10.1414 2.36465 8.39844 2.28052Z" fill="#20514C" stroke="#20514C" stroke-width="0.3"/>
</svg>
