<svg width="38" height="38" viewBox="0 0 38 38" fill="none" xmlns="http://www.w3.org/2000/svg">
<g clip-path="url(#clip0_529_5174)">
<path d="M24.4286 1.35718V17.6429L34.1729 30.0472C34.6475 30.6478 34.9432 31.3701 35.026 32.1312C35.1088 32.8923 34.9753 33.6613 34.6409 34.3499C34.3065 35.0386 33.7847 35.619 33.1354 36.0246C32.4861 36.4302 31.7356 36.6445 30.97 36.6429H7.03004C6.26448 36.6445 5.51399 36.4302 4.86468 36.0246C4.21538 35.619 3.69359 35.0386 3.35917 34.3499C3.02476 33.6613 2.89129 32.8923 2.97407 32.1312C3.05685 31.3701 3.35253 30.6478 3.82718 30.0472L13.5715 17.6429V1.35718M9.50004 1.35718H28.5" stroke="#20514C" stroke-width="2.5" stroke-linecap="round" stroke-linejoin="round"/>
</g>
<defs>
<clipPath id="clip0_529_5174">
<rect width="38" height="38" fill="white"/>
</clipPath>
</defs>
</svg>
