<svg width="37" height="37" viewBox="0 0 37 37" fill="none" xmlns="http://www.w3.org/2000/svg">
<path d="M18.4121 0.25C28.443 0.25 36.5751 8.38127 36.5752 18.4121C36.5752 28.4431 28.4431 36.5752 18.4121 36.5752C8.38127 36.5751 0.25 28.443 0.25 18.4121C0.250143 8.38185 8.38136 0.250142 18.4121 0.25ZM18.4121 2.81836C9.80073 2.8185 2.8185 9.80073 2.81836 18.4121C2.81836 19.2659 2.88899 20.1045 3.02148 20.9229L3.06543 21.1963L3.33301 21.124L13.8311 18.3086L14.2148 18.2061L13.9561 17.9043C13.0559 16.8533 12.5245 15.4421 12.5244 13.9629C12.5244 11.2313 14.3335 8.74551 16.9199 8.30176L17.1279 8.2666V6.3877H19.6963V8.2666L19.9043 8.30176C22.4115 8.73209 24.1877 11.0811 24.2939 13.7129H21.7217C21.6107 11.9516 20.3363 10.8011 19.0723 10.8008H17.7559C16.4293 10.8009 15.0938 12.061 15.0938 13.9629C15.0939 15.8642 16.4289 17.1278 17.7559 17.1279H18.249L18.2812 17.1191L32.8301 13.2188L33.0977 13.1465L32.999 12.8887C30.7692 7.00248 25.0786 2.81836 18.4121 2.81836ZM17.1279 28.5537L16.9199 28.5186C14.413 28.0919 12.6365 25.7398 12.5303 23.1074H15.1016C15.2124 24.8691 16.4878 26.0233 17.7559 26.0234H19.0713C20.3947 26.0234 21.7305 24.7588 21.7305 22.8574C21.7303 20.9559 20.3942 19.6963 19.0713 19.6963H18.5859L18.5547 19.7051L3.99316 23.6064L3.72656 23.6777L3.82422 23.9365C6.05408 29.8226 11.7458 34.0059 18.4121 34.0059C27.0236 34.0057 34.0059 27.0236 34.0059 18.4121C34.0059 17.5585 33.9362 16.7198 33.8037 15.9014L33.7588 15.6289L33.4922 15.7002L22.9961 18.5156L22.6143 18.6182L22.8711 18.9199C23.7677 19.9711 24.2997 21.3821 24.2998 22.8574C24.2998 25.5893 22.4902 28.0785 19.9043 28.5186L19.6963 28.5537V30.4365H17.1279V28.5537Z" fill="#20514C" stroke="#F2EEE6" stroke-width="0.5"/>
</svg>
