<svg width="36" height="36" viewBox="0 0 36 36" fill="none" xmlns="http://www.w3.org/2000/svg">
<path fill-rule="evenodd" clip-rule="evenodd" d="M18.4984 0C23.0542 0 26.3007 4.34627 24.9449 8.62405L23.4262 13.3955H29.6168C33.7671 13.3955 36.8109 17.2348 35.8074 21.1985L33.2554 31.2449C32.5443 34.0378 29.9923 36 27.0648 36H4.67866C2.0934 36 0 33.9397 0 31.3954V18.0001C0 15.4557 2.0934 13.3955 4.67866 13.3955H9.78266C10.3409 13.3955 10.8526 13.0848 11.1019 12.591L17.0532 0.880121L17.1695 0.687169C17.4686 0.262028 17.9634 0 18.4984 0ZM4.6785 15.9069C3.50551 15.9069 2.55183 16.8455 2.55183 17.9999V31.3952C2.55183 32.5496 3.50551 33.4882 4.6785 33.4882H8.50649V15.9069H4.6785ZM13.3842 13.7158C12.8991 14.6707 12.055 15.3739 11.0582 15.7009V33.4881H27.0643C28.8188 33.4881 30.3507 32.3109 30.776 30.6364L33.328 20.59C33.9328 18.2091 32.1052 15.9068 29.6163 15.9068H21.6911C21.2858 15.9068 20.9036 15.7171 20.6611 15.3966C20.4218 15.0729 20.352 14.6576 20.475 14.275L22.5053 7.87494C23.2928 5.39279 21.5882 2.87456 19.0594 2.54755L13.3842 13.7158Z" fill="#20514C"/>
</svg>
