<svg width="60" height="40" viewBox="0 0 60 40" fill="none" xmlns="http://www.w3.org/2000/svg">
<path fill-rule="evenodd" clip-rule="evenodd" d="M46.0958 17.5126C45.5071 17.5126 45.0303 17.9921 45.0303 18.5781V23.5834C45.0303 24.1721 45.5071 24.6489 46.0958 24.6489H51.1011C51.6898 24.6489 52.1666 24.1721 52.1666 23.5834V18.5781C52.1666 17.9921 51.6898 17.5126 51.1011 17.5126H46.0958ZM47.1613 22.5179V19.6436H50.0356V22.5179H47.1613Z" fill="#20514C"/>
<path fill-rule="evenodd" clip-rule="evenodd" d="M9.58984 16.6329C9.58984 9.57144 15.3144 3.84656 22.3762 3.84656C29.438 3.84656 35.1626 9.5711 35.1626 16.6329C35.1626 23.6948 29.438 29.4193 22.3762 29.4193C15.3144 29.4193 9.58984 23.6948 9.58984 16.6329ZM22.3762 5.97762C16.4918 5.97762 11.7209 10.7485 11.7209 16.6329C11.7209 17.2163 11.7689 17.789 11.8594 18.3484L19.15 16.3932C18.4974 15.6313 18.1138 14.611 18.1138 13.5429C18.1138 11.577 19.4165 9.76552 21.3104 9.44058V8.10868H23.4415V9.44058C25.3354 9.76556 26.6381 11.577 26.6381 13.5429H24.507C24.507 12.3015 23.6413 11.521 22.8342 11.521H21.9205C21.1107 11.521 20.245 12.3015 20.245 13.5429C20.245 14.7842 21.1107 15.5674 21.9205 15.5674H22.2401L32.3438 12.8583C30.82 8.8359 26.9312 5.97762 22.3762 5.97762ZM32.8931 14.9172L25.6045 16.8724C26.2545 17.6343 26.6381 18.6545 26.6381 19.7201C26.6381 21.686 25.3354 23.5001 23.4415 23.8223V25.1569H21.3104V23.8223C19.4165 23.5 18.1138 21.686 18.1138 19.7201H20.2449C20.2449 20.9614 21.1106 21.7446 21.9204 21.7446H22.8341C23.6412 21.7446 24.5069 20.9615 24.5069 19.7201C24.5069 18.4787 23.6412 17.6983 22.8341 17.6983H22.5197L12.4079 20.4074C13.9317 24.4297 17.8208 27.2882 22.3758 27.2882C28.2602 27.2882 33.0312 22.5173 33.0312 16.6329C33.0312 16.0495 32.9837 15.4766 32.8931 14.9172Z" fill="#20514C"/>
<path fill-rule="evenodd" clip-rule="evenodd" d="M0.000673761 1.06553C0.000673761 0.476826 0.4775 0 1.0662 0H41.0927C41.6814 0 42.1582 0.476826 42.1582 1.06553V12.5092H53.6018C53.9827 12.5092 54.337 12.7143 54.5262 13.0473L59.5288 21.8034C59.6221 21.9632 59.67 22.147 59.67 22.3308V33.5883C59.67 34.177 59.1932 34.6538 58.6045 34.6538H54.5741C54.068 37.4988 51.5853 39.6564 48.5991 39.6564C45.6103 39.6564 43.1277 37.4987 42.6215 34.6538H41.0925H41.0419H17.0485C16.545 37.4961 14.0597 39.6564 11.0735 39.6564C8.08474 39.6564 5.59941 37.496 5.09593 34.6538H1.06553C0.476826 34.6538 0 34.177 0 33.5883L0.000673761 1.06553ZM57.5393 32.5227H54.5745C54.071 29.6804 51.5857 27.5201 48.5995 27.5201C45.6107 27.5201 43.1254 29.6805 42.6219 32.5227H42.1584V14.6402H52.9842L57.5393 22.6155V32.5227ZM5.09681 32.5227C5.60027 29.6777 8.08561 27.5201 11.0744 27.5201C14.0606 27.5201 16.5459 29.6778 17.0494 32.5227H40.0273V2.1314H2.13194V32.5227H5.09681ZM7.13465 33.5883C7.13465 31.4146 8.89808 29.6511 11.0744 29.6511C13.2481 29.6511 15.0115 31.4146 15.0115 33.5883C15.0115 35.7619 13.2481 37.5254 11.0744 37.5254C8.89808 37.5254 7.13465 35.7619 7.13465 33.5883ZM48.6 29.6511C46.4237 29.6511 44.6602 31.4146 44.6602 33.5883C44.6602 35.7619 46.4237 37.5254 48.6 37.5254C50.7737 37.5254 52.5371 35.7619 52.5371 33.5883C52.5371 31.4146 50.7737 29.6511 48.6 29.6511Z" fill="#20514C"/>
</svg>
