<svg width="37" height="34" viewBox="0 0 37 34" fill="none" xmlns="http://www.w3.org/2000/svg">
<g filter="url(#filter0_d_529_5191)">
<path d="M5.39556 8.4774C5.39586 7.01577 5.77399 5.57903 6.49325 4.30662C7.21251 3.03421 8.24848 1.96933 9.50061 1.21532C10.7527 0.461319 12.1785 0.0437917 13.6396 0.0032612C15.1007 -0.0372693 16.5474 0.300573 17.8394 0.984004C19.1314 1.66743 20.2248 2.67324 21.0135 3.90383C21.8022 5.13441 22.2594 6.54797 22.3408 8.00734C22.4221 9.4667 22.1248 10.9223 21.4777 12.2329C20.8307 13.5435 19.8558 14.6646 18.6477 15.4874C21.2493 16.4415 23.5058 18.1525 25.1268 20.3999C26.7478 22.6473 27.6592 25.3284 27.7436 28.0982C27.74 28.3968 27.6211 28.6825 27.4119 28.8956C27.2026 29.1086 26.9191 29.2326 26.6206 29.2416C26.3221 29.2505 26.0316 29.1438 25.81 28.9436C25.5883 28.7435 25.4525 28.4654 25.4311 28.1676C25.3393 25.1636 24.0814 22.3133 21.924 20.2209C19.7667 18.1285 16.8794 16.9583 13.874 16.9583C10.8685 16.9583 7.98123 18.1285 5.82388 20.2209C3.66652 22.3133 2.40866 25.1636 2.31685 28.1676C2.30142 28.4695 2.16835 28.7533 1.94617 28.9583C1.72399 29.1633 1.43036 29.2732 1.12818 29.2643C0.826011 29.2554 0.539328 29.1286 0.329552 28.9109C0.119776 28.6932 0.00359327 28.402 0.00589287 28.0997C0.0899929 25.3297 1.0012 22.6483 2.62223 20.4005C4.24326 18.1528 6.49992 16.4416 9.10173 15.4874C7.95947 14.7094 7.02468 13.6641 6.37874 12.4423C5.73279 11.2205 5.39527 9.85941 5.39556 8.4774ZM13.8747 2.31073C12.2392 2.31073 10.6707 2.96043 9.51423 4.11691C8.35776 5.27338 7.70806 6.8419 7.70806 8.4774C7.70806 10.1129 8.35776 11.6814 9.51423 12.8379C10.6707 13.9944 12.2392 14.6441 13.8747 14.6441C15.5102 14.6441 17.0787 13.9944 18.2352 12.8379C19.3917 11.6814 20.0414 10.1129 20.0414 8.4774C20.0414 6.8419 19.3917 5.27338 18.2352 4.11691C17.0787 2.96043 15.5102 2.31073 13.8747 2.31073ZM26.6551 8.4774C26.428 8.4774 26.205 8.49282 25.9861 8.52365C25.8332 8.55102 25.6764 8.54732 25.525 8.51278C25.3737 8.47823 25.2308 8.41356 25.1049 8.3226C24.9791 8.23164 24.8729 8.11626 24.7926 7.98336C24.7123 7.85045 24.6596 7.70273 24.6376 7.54902C24.6157 7.39531 24.6249 7.23874 24.6648 7.08867C24.7046 6.9386 24.7743 6.7981 24.8696 6.67554C24.965 6.55298 25.084 6.45089 25.2197 6.37534C25.3553 6.29979 25.5048 6.25234 25.6592 6.23582C27.1925 6.01413 28.756 6.30858 30.1036 7.07282C31.4513 7.83707 32.5065 9.02772 33.1033 10.4574C33.7001 11.8871 33.8046 13.4746 33.4003 14.9702C32.996 16.4658 32.1059 17.7844 30.8701 18.7187C32.6867 19.5321 34.2292 20.8539 35.3114 22.5245C36.3936 24.1951 36.9692 26.1432 36.9689 28.1337C36.9689 28.4403 36.8471 28.7344 36.6302 28.9512C36.4134 29.1681 36.1193 29.2899 35.8126 29.2899C35.506 29.2899 35.2119 29.1681 34.995 28.9512C34.7782 28.7344 34.6564 28.4403 34.6564 28.1337C34.6569 26.4132 34.1029 24.7384 33.0765 23.3576C32.0501 21.9769 30.606 20.9637 28.9584 20.4685L28.1351 20.2218V17.638L28.7672 17.3158C29.7042 16.8412 30.4538 16.0646 30.8952 15.1116C31.3365 14.1585 31.4438 13.0845 31.1997 12.0629C30.9556 11.0414 30.3743 10.1319 29.5498 9.48137C28.7252 8.83081 27.7054 8.47712 26.6551 8.4774Z" fill="#20514C"/>
</g>
<defs>
<filter id="filter0_d_529_5191" x="-3.99414" y="0" width="44.9629" height="37.2899" filterUnits="userSpaceOnUse" color-interpolation-filters="sRGB">
<feFlood flood-opacity="0" result="BackgroundImageFix"/>
<feColorMatrix in="SourceAlpha" type="matrix" values="0 0 0 0 0 0 0 0 0 0 0 0 0 0 0 0 0 0 127 0" result="hardAlpha"/>
<feOffset dy="4"/>
<feGaussianBlur stdDeviation="2"/>
<feComposite in2="hardAlpha" operator="out"/>
<feColorMatrix type="matrix" values="0 0 0 0 0 0 0 0 0 0 0 0 0 0 0 0 0 0 0.25 0"/>
<feBlend mode="normal" in2="BackgroundImageFix" result="effect1_dropShadow_529_5191"/>
<feBlend mode="normal" in="SourceGraphic" in2="effect1_dropShadow_529_5191" result="shape"/>
</filter>
</defs>
</svg>
